<?xml version="1.0" encoding="UTF-8"?><svg xmlns="http://www.w3.org/2000/svg" xmlns:xlink="http://www.w3.org/1999/xlink" viewBox="0 0 1500 350"><defs><style>.cls-1{fill:#975c31;}.cls-1,.cls-2,.cls-3,.cls-4,.cls-5,.cls-6,.cls-7,.cls-8,.cls-9,.cls-10,.cls-11,.cls-12,.cls-13,.cls-14,.cls-15,.cls-16,.cls-17,.cls-18{stroke-width:0px;}.cls-2,.cls-3{fill:#8d4f2c;}.cls-3{fill-rule:evenodd;}.cls-19{isolation:isolate;}.cls-4{fill:url(#radial-gradient);}.cls-4,.cls-11{mix-blend-mode:multiply;}.cls-5{fill:#925428;}.cls-6{fill:none;}.cls-20{clip-path:url(#clippath-1);}.cls-7{fill:#804417;}.cls-7,.cls-11{opacity:.6;}.cls-8{fill:#814524;}.cls-21{clip-path:url(#clippath);}.cls-9{fill:#1f0d09;}.cls-10{fill:#8b4a29;}.cls-11{fill:#ad9987;}.cls-12{fill:#9e5e34;}.cls-13{fill:#783f26;opacity:.75;}.cls-14{fill:#97562c;}.cls-15{fill:#884827;}.cls-16{fill:#703d25;}.cls-17{fill:#a07c46;}.cls-18{fill:#93542a;}</style><clipPath id="clippath"><rect class="cls-6" x="-2.4" y="-6.95" width="1505.4" height="371.95" transform="translate(1500.6 358.05) rotate(180)"/></clipPath><clipPath id="clippath-1"><path class="cls-6" d="m1561.97,94.98c2.57-37.39,14.91-70.31,3.56-106.52-5.38-17.08-17.3-27.73-21.18-46.26-4.01-19.08,4.39-41.23.1-60.29-10.92-48.48-32.37-34.69-79.82-37.08-46.47-2.35-105.56-27.82-150.97-10.44-23.13,8.87-47.68,32.93-70.82,38.23-93.68,21.43-178.88-52.61-271.35-49.03-105.91,4.08-181.56,48.25-295.91,29.75-29.35-4.74-48.61-29.13-81.91-29.17-42.92-.06-55.63,24.9-91.59,29.13-60.66,7.14-116.22-26.45-173.66-29.36-52.03-2.63-144.27,41.71-175.78-17.28-59.75-1.62-117.92,21.68-180.57,19.41C-6.11-173.14,3.92,11.04-74.57-1.1c14.26,10.75,31.4,28.85,43.28,44.18-18.74,7.52-40.37,7.55-59.31,10.94,31.5,37.64,25.09,93.07,37.75,138.48,18.71,67.11-8.79,151.56,18.65,212.59,76.77,8.31,158.49,20.45,234.38-7.43,34.49-12.69,52.17-33.25,88.74-29.1,34.64,3.91,81.21,21.68,114.66,35.59-3.76-1.56,1.87-42.45,2.6-47.07,37.15,3.81,63.91,40.84,102.14,48.63,41.44,8.45,88.59,9.84,131.1,15.97,114.54,16.52,230.62,16.68,346.03,16.68,104.49,0,206.22-13.92,310.71-13.92,39.62,0,79.17-2.06,118.72-4.12,23.06-1.21,111.78,8.52,127.56-6.62,13.57-13.03,55.35-131.04,27.84-141.47-22.76-8.64-43.88-15.52-69.62-15.52,13.45-28.57,40.81-43.44,69.1-51.67-7.34-35.03-10.28-73.75-7.77-110.05Z"/></clipPath><radialGradient id="radial-gradient" cx="69.28" cy="-20.11" fx="69.28" fy="-20.11" r="69.89" gradientTransform="translate(23.14 96.3) scale(10.64 14.85)" gradientUnits="userSpaceOnUse"><stop offset="0" stop-color="#fff"/><stop offset="1" stop-color="#c3baa3"/></radialGradient></defs><g class="cls-19"><g id="Capa_1"><g class="cls-21"><g class="cls-20"><path class="cls-9" d="m180.19-767.53c-78.61,0-142.37,66.6-142.37,148.78V183.6c0,82.16,63.75,148.78,142.37,148.78h1134.73c78.61,0,142.34-66.62,142.34-148.78v-802.35c0-82.17-63.73-148.78-142.34-148.78H180.19Z"/><path class="cls-18" d="m-170.05,357.35c-.01,82.17,63.71,148.79,142.34,148.79l712.34.04-23.71-54.92,37.74-59.86.63,77.67,36.28,37.11,580.11.04,7.48-44.34,65.43,44.34h150.09c78.61.02,142.35-66.59,142.35-148.75V42.29s-73.82-24.84-73.82-24.84l73.83-28.3.02-362.84-91.21-14.69,91.22-33.34v-340.27c.01-82.17-63.71-148.79-142.33-148.79l-551.95-.02-33.47,22.61-29.81,51.66,2.86-41.32,20.51-32.95-884.06-.06,23.96,46.53-53.62-46.53H-27.63c-39.31,0-61.2,51.32-52.39,65.49,0,0,65.31,25.78,68.55,33.46,0,0-109.74-16.86-114.19,0-3.33,12.61-44.33,36.09-44.33,49.81v329.92s42.78-8.78,42.78-8.78l31.1,20.55-39.55-1.13-34.34,22.67V-78.55s59.86,18.36,59.86,18.36l-59.87,2.69-.02,414.86Z"/><path class="cls-14" d="m1526.4,297.47c-16.27-1.78-18.78-20.73-36.03-21.5-17.36-.77-32.27,10.5-47.83,3.76-23.43-10.19-39.91-18.95-66.89-18.92-19.54.03-38.8,2.3-58.28,2.53-11.3.11-30.41-4.95-40.99-1.33-9.97,3.4-5.35,5.08-8.18,13.59-3.87,11.65-11.64,18.4-21.58,24.73-31.32,19.91-67.18,14.73-101.8,9.41-48.07-7.4-95.99-17.5-144.31-23.37-15.51-1.89-53.48-4.38-58.25,19.94-2.76,13.92,12.11,15.43,22.74,13.63,13.3-2.26,34.4-15.53,47.51-6.43,10.22,7.1,2.5,20.26,16.34,25.35,8.93,3.3,21.85-.15,31.34,1.52,12.82,2.27,21.84,7.64,32.31,15.52,19.13,14.32,34.13,19.28,57.34,13.26,17.13-4.45,20.27-3.93,29.86,11.7,8.72,14.22,23.36,30.92,40.62,33.85,15.67,2.66,33.6-11.18,49.87-12.41,21.32-1.6,41.64,6.57,62.71,7.6,12.76.64,40.43-5.59,42.73,12.64,1.31,10.68-15.73,23.1-6.05,31.58,8.79,7.71,41.25-.24,51.52-1.24,15.16-1.46,27.82-1.1,38.13-13.84,10.06-12.41,16.18-20.86,33.44-22.86,13.86-1.61,27.22,3.62,40.64,3.84,16,.27,26.95-14.36,43.02-13.6,15.59.72,34.5,8.02,50.15,11.05,13.2,2.55,25.21,8.41,38.03,9.59,10.54-20.76,16.52-44.43,16.52-69.56v-83.09c-6.79-3.97-15.33-5.18-25.87-1.93-24.9,7.7-59.77,68-89.63,43.68-6.17-5.01-9.1-15.53-16.63-19.07-7.21-3.37-15.32,1.19-22.51.41Z"/><path class="cls-14" d="m-170.05,93.8c2.5.08,4.95.15,7.36.28,31.04,1.73,56.62,10.89,84.07,24.83,51.98,26.39,100.61,14.21,156.33,20.81,19.25,2.3,34.11,13.68,53.02,18.82,31.56,8.58,67.1-.19,99.51,3.21,67.23,7.03,142.34,35.9,212.02,12.78,27.02-3.2,31-19.22,50.5-30.17,38.12-21.39,97.82-1.1,139.1-15.4,48.64-16.86,87.75-21.34,141.7-21.34,46.61,0,87.6,2.36,125.99-22.08,52.57-33.47,120.55-30.92,176.88-58.35-52.03.91-105.32-6.95-156.16.14-33.19,4.63-64.48,16.92-98.68,16.05-22.35-.58-41.59-7.61-63.09-10.11-23.04-2.68-46.71-4.63-70.28-3.41-27.22,1.42-64.8,12.99-91.8,5.56-23.19-6.39-19.6-24.13-40.42-34.24-21.41-10.4-62.9-7.05-86.67-8.64-29.72-1.98-58.53-6.31-88-8.03-26.49-1.55-50.04,7.66-75.74,8.03-25.49.37-30.81-15.88-55.81-18.74-32.99-3.74-73.1,1.52-104.37,12.65-26.26,9.35-47.07,30.88-72.76,38.34-24.3,7.07-52.65,7.94-77.88,10.43-47.56,4.71-93.32,11.52-140.45,19-7.36,1.18-15.68,1.92-24.37,2.74v36.86Z"/><path class="cls-14" d="m1268.69-50.48c11.85,13.18,55.4,17.48,71.81,23.52,16.92,6.2,82.42,11.42,99.27,14.49,40.96,7.43,31.57,16.86,72.96,18.28,35.57,1.23,68.34,6.91,99.16,9.83l69.16-26.5.02-66.69c-3.48.28-6.6.47-9.06.47-57.83,0-273.42,8.04-331.52,8.04-16.34,7.56-57.27,7.49-71.81,18.56Z"/><path class="cls-15" d="m772.55,278.23c-30.03,13.02-62.86,32.81-96.29,34.46-37.27,1.84-76.69-.23-112.7-2.04-38.61-1.97-187.04,24.29-203.57,46.32,25.08,4.66,140.55-7.78,169.23-4.73,82.17,8.67,151.71,12.52,235.02,16.85,37.02,1.92,215.98-16.37,328.27,37.11,12.86,6.11,39.78,13.17,48.83,10.99,3.91-15-121.63-48.57-136.64-53.82-35.32-12.36-80.26-8.31-117.14-6.44-38.46,1.94-81.23,6.77-117.14-4.1-56.03-17-27.46-43.82,2.11-74.59Z"/><path class="cls-8" d="m-170.05,107.51C-11.7,75.9,231.63,173.13,468.85,172.66c145.78-.28,175.46-34.5,344.92-5.72,122.53,20.79,178.66-18.23,262.23-24.76,41.96-3.27,178.53,1.38,316.66,8.27,74.02,3.69,210.22-17.41,288.4-31.91v-15.92c-74.58,16.11-210.89,41.98-280.56,39.16-105.82-4.28-283.15-18.66-327.02-16.39-122.24,6.37-157.96,39.09-250.31,25.96-143.54-20.42-260.11,8.87-364,6.99-117.34-2.11-195.24-23.89-334.91-44.85-140.23-21.06-206.37-30.84-294.3-13.77v7.79Z"/><path class="cls-8" d="m1237.41,314.85c-61.46,19.04-133.88-5.67-180.79-23.72-61.18-23.53-200.51-17.91-173.66,13.52,15.87,18.57,177.42,13.27,327.15,84.42,46.54,22.1,96.53,17.6,149.43,12.83,44.22-3.97,89.93-8.11,134.02,4.45,34.5,9.82,97.26,6.01,157.98,2.35,7.2-.44,14.27-.86,21.24-1.26,1.16-3.39,2.18-6.84,3.11-10.34-8.13.47-16.46.97-24.91,1.47-57.15,3.46-121.92,7.37-154.92-2.02-45.74-13.02-92.28-8.82-137.32-4.76-51.65,4.66-100.44,9.07-144.7-11.98-143.45-68.15-302.38-66.15-303.78-79.06-1.97-18.61,81.57-14.4,136.77-1.74,61.06,14.01,138.94,43.15,202.76,23.37,96.63-29.97,232.33-16.01,346.9-2.23,29.11,3.49,57.39,6.88,84.35,9.48v-10.19c-26.61-2.56-54.54-5.91-83.27-9.36-115.45-13.9-261.87-25.78-360.36,4.77Z"/><path class="cls-8" d="m1457.31,332.42c-11.42.53-23.21,1.08-34.77,1.08-14.15,0-28.77-2.55-42.9-5.01-19.45-3.39-39.6-6.89-58.83-3.79-10.42,1.67-20.9,5.85-31.05,9.88-10.78,4.29-21.9,8.73-32.61,9.97-8.76,1.03-18.68.85-27.43.67-15.78-.27-24.91-.23-28.94,3.95-1.26,1.32-1.97,3.03-1.97,4.92,0,2.97,1.34,5.73,3.92,8.2,18.68,17.76,108.63,20.81,159.93,15.01,64.8-7.29,182.86,9.79,205.63,10.67,23.31.89,69.63.6,110.32-3.35.38-2.12.72-4.24,1.01-6.38-26.5,2.08-59.23,2.28-94.33-.94-21.72-2-82.4-11.34-94.28-12.72-35.83-4.16-63.74-1.34-129.03,6-55.55,6.27-139.65,1.26-154.99-13.32-1.17-1.13-1.77-2.18-1.77-3.16l-.02-.04c1.41-2.46,15.25-2.23,24.41-2.06,8.95.16,19.07.33,28.24-.74,11.52-1.33,23.03-5.92,34.17-10.35,9.82-3.91,20.01-7.97,29.74-9.54,18.26-2.92,37,.34,56.83,3.79,14.4,2.51,29.27,5.1,43.94,5.1,11.7,0,81.78-3.26,104.86.08,15.44,2.25,63.55,12.37,107.41,17.85,14.91,1.87,31.01,1.88,46.18,1.34.02-.7.06-1.37.06-2.07v-5.2c-15.39.46-31.27.55-45.53-.8-20.37-1.89-91.7-15.57-107.26-17.82-23.65-3.43-47.68-2.31-70.94-1.22Z"/><path class="cls-5" d="m1296.93,367.69c24.89-2.63,49.37-.55,73.56-5.53,12.11-2.49,22.75-3.88,34.96-4.01,11.5-.14,33.21-.62,38.58-4.45,3.37-4.11-9.34-3.18-11.43-3.75-21.37,0-43.65,1.55-63.31-5.47-21.09-7.51-35.51-6.1-56.92,2.73-10.39,4.29-19.71,7.62-30.95,8.21-8.62.42-24.16-2.78-31.05,2.7-13.26,10.54,5.32,10.97,14.25,10.96,11.02-.02,21.57-.24,32.31-1.38Z"/><path class="cls-5" d="m1476.73,349.59c15.05,10.89,39.03,7.1,56.64,9.88,20.27,3.21,39.62,10.35,59.43,12.33,20.95,2.11,42.09.27,63.32,1.36,8.12.44,16.4.37,24.13-.03.33-3.27.53-6.56.66-9.9-11.22,1.07-22.58,2.31-33.84,1.74-19.59-1.03-41.01-2.36-60.72-5.47-19.84-3.13-36.61-11.51-56.86-13.68-14.36-1.52-43.38-10.26-52.76,3.75Z"/><path class="cls-2" d="m980.18,209.11h-.79c.58.56.95.67.79,0Z"/><path class="cls-2" d="m977.04,209.11h2.35c-.53-.55-1.29-1.48-1.97-2.54l-.39,2.54Z"/><path class="cls-2" d="m120.76,330.72c46.42,2.79,92.55,5.18,138.79,7.45,87.08,4.3,161.31-27.43,246.48-40.62,41.98-6.51,83.18-1.98,124.44.14,41.43,2.13,72.7-8.72,110.08-22.14,72.63-26.11,169.06-7.45,234.5-53.79l2-12.65h-2.01c-25.33,6.59-60.14,2.66-86.11,5.06-27.54,2.54-57.17,2.47-83.77,5-18.05,1.73-15.36,12.04-31.11,19.31-17.41,8.02-53.5,14.12-71.74,18.73-44.31,11.16-88.08,15.55-134.04,17.08-71.98,2.37-255.84,46.33-298.34,42.04-125.91-12.79-92.68-53.42-217.96-23.08-67.27,16.32-150.62,48.18-222,36.28v28.52c38.29-2.13,84.09-7.14,111.46-12.84,62.35-13,115.93-18.33,179.34-14.49Z"/><path class="cls-3" d="m656.76,219.23c-.87-.38-1.92-.57-3-.68l3,.68Z"/><path class="cls-3" d="m-170.05,294.73c15.9-1.62,32.05-4.63,46.78-4.63,42.24,0,81.2-6.05,122.58-10.06,36.98-3.58,74.05-17.27,110-17.79,35.02-.49,64.39,14.36,97.6,17.85,19.35,2.03,41.64.37,59.8-2.68,8.57-1.43,11.36-4.01,21.56-5.05,9.37-.94,19.28.02,28.7,0,35.18-.06,72.86-5.6,107.76-17.08,37.56-12.36,73.84-14.88,114.8-12.74,20.78,1.1,39.35,2.58,59.82-3.72,13.7-4.2,41.01-21.64,54.42-20.3l-12.1-2.74c-6.39.46-15.1.94-25.71,1.47-15.22,7.52-42.7,4.39-62.37,2.66-15.08.58-31.27,1.18-48.14,1.79-24.34,3.4-48.77,9.77-68.83,16.75-28.65,9.96-66.35,13.61-95.75,15.21-28.75,1.57-28.04,4.68-57.39,3.51-42.18-1.7-83.57-5.52-124.42-12.1-44.43-7.14-91.63-.22-136.54,2.54-40.69,2.49-90.53-.2-129.07,12.65-19.82,6.61-29.81,13.42-52.65,12.23-3.59-.19-7.21-.55-10.83-.96v23.18Z"/><path class="cls-3" d="m633.41,213.94l-10.12-2.31c-.62.75-1.36,1.4-2.06,2.04l12.19.27Z"/><path class="cls-1" d="m774.03,221.76s-63.39-10.61-83.48-7.37c-19,3.07-53.4,18.7-71.46,25.73-17.65,6.88-28.59,13.07-47.93,15.12-38.5,4.07-78.47-5.59-114.94,6.05-69.35,22.14-189.7,34.55-244.77,29.17,14.29,3.78,49.81,16.38,64.86,17.36,36.93,2.39,89.42-3.22,122.92-16.45,35.28-13.96,66.45-18.08,104.35-24.17,40.07-6.44,78.27-3.35,117.31-7.4,37.61-3.91,117.58-24.61,153.15-38.03Z"/><path class="cls-8" d="m-170.05,80.54C-24.01,70.33,268.78,5.75,324.67,5.9c59.37.14,189.33,26.24,189.05,23.74,131.05,21.17,260.72,18.09,388.67-7.69,239.06-48.16,329.83-39.52,473.65,6.27,87.63,27.89,107.08,6.55,166.92,13.79,32.97,4.01,54.86,21.2,87.32,23.22,16.69,1.04,33.78-3.56,50.78-5.9v-17.04l-.05-.02c-9.89,5.97-20.9,10.64-38.09,3.75-38.5-15.46-86.6-21.03-134.11-18.47-85.96,4.63-176.28-50.07-261.94-53.77-250.26-10.73-398.94,57.94-649.82,48.74-61.79-2.27-201.49-28.67-264.98-28.67-56.7,0-375.54,64.17-502.11,73.7v12.99Z"/><path class="cls-2" d="m260.14,43.35c24.81-9.25,84.97-14.35,128.36-14.39-59.33-12.58-121.32-5.3-179.88,9.38-29.12,7.28-59.21,18.12-88.44,22.65-29.86,4.63-87.98,8.23-93.2,18.1-4.69,14.01,98.01,17.83,132.98,22.39,41.95,5.48,114.99,30.27,121.13,20.12,0-6.09-69.64-15.21-69.64-42.16s21.21-25.87,48.69-36.09Z"/><path class="cls-8" d="m-170.05,194.91c22.21-7.37,50.5-16,65.34-18.04,65.44-8.98,134.95-17.15,200.28-.56,29.18,7.42,57.1,19.31,81.01,37.91l114.51-7.66,140.29,3.02c-24.35-4.82-55.84-10.1-68.59-12.54-60.06-11.6-121.11-24.15-180.85-37.7-43.34-9.86-200.27-35.62-270.38-35.61-28.26,0-57.17-2.25-81.62,2.79v68.4Z"/><path class="cls-8" d="m380.92,225.89c-41.5,1.31-81.06,2.53-113.16,3.46,29.35-.34,73.82-1.4,113.16-3.46Z"/><path class="cls-10" d="m803.38,129.61c50.56-3.11,103.96-4.29,152.47-16.06,40.01-9.72,75.38-19.03,119.58-16.72,96.74,5.1,191.76,13.12,287.85,24.02,44.09,5.01,84.97,14.79,131.05,8.25,48.14-6.85,94.14-19.94,139.72-29.52,28.68-15.11-18.94-25.51-30.36-26.71-21.93-2.27-43.13-5.43-65.78-5.4-42.46.05-84.48,9.77-126.6,5.4-38.38-3.95-71.58-21.19-108.75-31.58-81.4-22.77-176.87-13.07-260.65-8.69-43.22,2.26-84.39,13.85-126.61,18.88-43.6,5.18-88.58,2.69-131.51,10.5-42.1,7.61-81.33,19.64-124.01,24.27-33.72,3.68-84.37,4.05-112.86,21.35,30.02,13.42,71,15.62,104.7,18.88,50.09,4.85,101.04,6.27,151.76,3.13Zm84.15-51.32c39.04-8.28,76.88-17.43,116.41-24.28,39.69-6.89,80.89-7.57,120.9-13.92,38.55-6.1,79.04-10.58,119.5-2.68,46.81,9.15,91.33,23.9,136.66,40.75,41.32,15.36,141.64,3.74,121.46,26.77-69.25,37.51-165.68-2.82-232.8-21.42-70.89-19.65-167.36-16.04-242.95-8.03-86.77,9.2-167.83,34.39-257.93,28.99,18.56-22.58,89.51-19.96,118.74-26.19Z"/><path class="cls-8" d="m-117.22,40.03C-73.79,46.51-23.96,13.42,19.95,9.08,130.69-1.9,232.68-33.12,345.46-33.12c222.2,0,189.89,54.64,586.43,14.41,26.25-2.65,115.07-16.91,184.21-32.96l-146.4-10.89c-46.06,16.86-151.98,44.58-335.25,35.19-118.12-6.04-341.2-20.88-459-8.31C118.4-29.58-9.28-5.81-64.9,7.84c-64.03,15.72-87.06-43.52-93.35-65.88l-11.77.53V-.91c16.41,20.95,34.6,38.23,52.8,40.94Z"/><path class="cls-8" d="m1327.27-41.65c-14.23-9.63,20.2-23.72,39.74-28.32,12.33-2.89,35.88-2,40.57-18.76-12.43,2.07-25.3,2.36-37.61,5.16-12.33,2.79-67.35,20.45-83.35,23.85-9.78,2.07-43.71.71-43.71,9.24s46.89,19.35,56.58,21.41c35.29,7.49,56.6,5.49,91.31,14.72,17.99,4.77,77.42,25.13,123.09,28.34,19.74,1.38,70.16.46,106.24,7.79l-12.92-4.34,18.4-7.05c-30.25-1.55-92.79-6.77-113.74-11.13-17.41-3.62-156.11-21.63-184.61-40.91Z"/><path class="cls-8" d="m1137.74,158.81c-54.36-2.5-113.65,10.21-163.75,31.3-13.45,5.68-27.68,11.42-42.09,15.59,24.27,1,48.52,2.13,72.8,1.83.87-.01,1.72.08,2.59.11,3.6-2.69,7.22-5.42,11.08-7.05,7.62-3.23,16.79-4.76,25.05-6.05,46.15-7.27,92.98-6.18,139.9-3.13,27.08,1.75,53.37,5.25,80.66,5.25,38.2,0,76.11-3.68,113.94-7.59,25.49-2.63,49.79,1.29,75.65,1.29,38.8,0,76.49-3.2,114.91-7.4,31.55-3.44,62.87-13.64,94.56-13.6,5.97,0,11.99.09,18.01.18v-22.46c-3.96.88-7.58,1.73-10.56,2.59-24.79,7.22-49.77,11.28-75.46,11.28-76.82.01-152.49,11-228.84,17.83-77.58,6.94-151.86-16.47-228.46-19.97Z"/><path class="cls-12" d="m-170.05,227.12c68.59-1.32,140.74-2.68,214.67-4.06l246.48-16.51,319.03,6.88c223.96-3.4,422.32-5.73,541.76-5.67,174.36.11,365.32,1.65,529.16,2.97v-13.92c-463.38-.61-1175.49-8.74-1358.96-7.9-119.3.55-306.56,11.38-492.14,16.01v22.2Z"/><polygon class="cls-16" points="-170.05 231.3 123.94 227.71 42.95 223.19 137.65 216.83 -170.05 220.98 -170.05 231.3"/><path class="cls-16" d="m525.52,211.61l128.21,2.77c0,1.95-100.8,5.84-208.16,9.4l396.31-4.82,839.17-2.79v-8.31l-866.27-.15-289.26,3.91Z"/><path class="cls-13" d="m-170.05,240.55l218.33.94s648.71-9.63,1081.05-10.4c-.8,14.83,6.87,18.37,26.78,18.19,19.86-.18,28.43-5.79,19.4-18.23h21.39c165.28.1,336.31-1.61,484.15-3.74v-12.81c-346.16,1.52-831.29,4.07-1131.83,5.62-136.02,5.21-356.58,11.43-356.58,11.43l-148.99-8.31c-68.71.59-141.31,1.31-213.69,2.06v15.26Z"/><path class="cls-16" d="m1132.3,243.5c4.35,4.87,14.8,5.85,23.82,5.77,19.86-.18,28.43-5.79,19.4-18.23h39.8c-9.97-.88-17.71-1.4-27.93-1.94-6.75-.37-21.78-4.95-21.41,4.36.1,2.65,5.56,5.25,3.93,7.19-6.47,7.79-27.9,5.77-37.61,2.84Z"/><path class="cls-4" d="m-153.08-137.15c1.85,21.5,2.89,43.2,3.65,64.92l39.27,12.04-38.8,1.75c.95,34.79,1.07,69.68,1.07,104.35.01,72.89,2.59,145.7,5.24,218.51,2.06,56.47-10.97,142.33,12.89,196.57,25.87,27.82,61.99,45.17,102.04,45.17l712.34.04-23.71-54.92,37.74-59.86.63,77.67,36.28,37.11,580.11.04,7.48-44.34,65.43,44.34h138.04c31.83-16.89,60.96-39.75,86.08-70.91,42.81-53.11,60.68-119.31,68.33-188.7V42.29l-73.83-24.84,73.83-28.3.02-362.84-91.21-14.69,82.67-30.21c-12.13-44.94-23.77-89.87-23.94-136.09-.34-93.49,35.79-168.14.87-263.37-94.08-15.44-179-72.66-277.01-92.75h-385.64s-33.47,22.59-33.47,22.59l-29.81,51.66,2.86-41.32,20.51-32.95-608.04-.04c-49.41,3.32-98.64,8.55-147.63,16.77-14.66,2.47-28.45,4.97-41.76,7.32-23.72,4.21-45.96,7.85-69.08,9.95l6.42,12.47-13.67-11.86c-17.49,1.32-35.62,1.7-55.45.6-25.88-1.43-61.29-6.09-92.67-2.47-6.86,13.07-8.93,26.46-5.05,32.69,0,0,65.31,25.78,68.55,33.46,0,0-109.74-16.86-114.19,0-.66,2.47-2.82,5.4-5.8,8.59,11.54,24.92,32,51.13,30.23,74.43-1.42,18.54-25.95,44.66-31.71,64.23-8.62,29.43-8.67,61.91-4.08,92.07,1.81,11.96,4.15,22.63,6.97,32.12-3.2,31.89-8.58,70.26-13.45,102.84l16.29-3.34,31.1,20.55-39.55-1.13-11.41,7.54c-3.13,20.31-5.63,36.26-6.59,43.38-11.81,88.52-7.04,144.72.59,233.5Zm226.66-210.11c7.36-1.85,95.41-8.49,93.06-12.36-26.61-42.93-102.67-34.71-102.62-89.24.06-56.76,96.84-38.14,96.31-96.07-16.63-5.54-72.45-41.26-82.16-55.42-37.07-53.96,19.3-108.7,68.56-108.84,52.56-.15,103.71,5.51,156.74.19,48.94-4.9,97.35-24.7,149.26-22.59,18.6.76,37.7,7.27,56.83,8.35,26.63,1.5,23.25-3.84,42.8-12.15,26.73-11.35,50.3-10.33,81.84-7.24,23,2.26,62.2,3.77,81.13,19.51,28.9,24.02,18.35,57.55,64.06,35.33,22.24-10.81,39.48-35.49,61.08-47.51,30.04-16.72,96.38-13.73,131.73-14.34,47.79-.84,94.77,11.93,142.37,14.34,32.05,1.62,48.65,9.05,71.86,21.67,24.92,13.56,45.57,23.19,74.02,23.04,30.76-.15,46.4-18.83,71.09-22.48,15.21-2.25,53.92,11.44,74.8,15.05,21.32,3.68,61.3,11.05,67.76,37.18,6.77,27.34-28.07,43.31,6.19,67.95,22.99,16.54,78.61,2.44,58.63,58.3-8.39,23.46-37.61,19.12-33.71,49.34.86,6.62,31.82,43.71,34.98,31.67-8.07,30.68-11.71,63.05-19.99,93.98-12.04,44.97-115.13,35.56-153.24,37.27-.19-2.41-.41-4.85-.49-7.16-53.56,30.44-125.47,15.78-180.76,3.15-63.86-14.6-122.35-18.71-188.58-22.11-30.2-1.55-58.05-2.3-88.95,0-31.91,2.37-54.78,19.54-85.39,22.32-57.56,5.23-121.83-12.14-181.48-14.88-45.64-2.09-90.46-3.5-136.01-3.72-41.76-.19-78.76-10.72-117.41-17.77-54.65-9.96-38.38,37.66-73.97,58.68-27.33,16.11-251.06,21.9-266-28.16-1.49-5,5.48-10.17,25.65-15.26ZM-22.91,117.07c1.54-5.05,4.76-9.84,10.38-14.32,19.19-15.31,87.33-19.91,111.8-24.02,39.8-6.69,90.57-9.33,119.62-42.84-7.59,8.75-86.13,10.57-100.63,13.04-37.07,6.32-71.61,9.67-109.01,6.5-104.78-8.89,1.14-53.84,9.57-102.37,7.21-41.56-28.11-65.91,16.31-91.45,44.21-25.42,103.42-9.05,150.72-9.24,27.19-.11,51.4,13.65,78.05,15.48,30.37,2.08,55.96-15.29,85.65-15.48,26.4-.18,48.29,11.84,74.73,14.87,55.62,6.37,114.05-7.45,167.15,3.81,28.24,5.97,48.36,20.34,78.36,22.23,34.29,2.17,54.4-9.91,85.32-19.51,31.64-9.82,54.89,2.49,85.47,1.09,28.22-1.28,56.84-18.19,85.58-22.38,37.64-5.47,58.23,21.38,95.89,25.92,45.25,5.47,86.89,12.24,131.46,18.59,43.94,6.25,84.85,6.81,124.74-11.14,33.24-14.97,63.2-16.67,96.24-24.29.17.44.25.9.44,1.33,27.19.75,57.99-.74,67.61,29.75,15.97.43,49.84-3.38,63.41,4.38,19.57,11.16,17.19,29.42,18.6,55.76,1.87,35.02,1.08,58.99,9.13,93.48,7.72,33,18.96,73.39,11.51,107.44-8.64,39.48-65.11,57.71-59.94,107.12,24.07,23.74,54.12,22.1,59.07,55.59,4.15,28.05-15.76,49.02-38.16,60.33-27.46,13.87-63.22,12.71-92.71,15.71-51.17,5.2-98.68,25.75-150.44,18.98-53.56-7-112.62-31.39-167.02-17-59.28,15.67-111.91,22.8-173.58,19.5-63.41-3.39-124.86,2.08-188.57-3.53-38.14-3.35-67.78-16.58-103.01-30.13-28.72-11.06-57.64-23.91-89.06-25.93-50.19-3.21-85.91-10.83-133.64-23.6-35.77-9.57-17.2-2.2-41.01,8.67-24.42,11.14-27.87,10.8-60.28,7.5-34.8-3.54-74.12,1.36-104.05,14.06-38.41,16.29-49.58,34.43-95.22,34.38-43.74-.05-109.18,12.51-130.4-33.15-25.4-54.65,9.71-112.87,16.65-167.48,3.46-27.26-23.62-54.97-16.74-77.62Z"/><path class="cls-7" d="m338.31,356.88c309.2,17.05,1067.55.1,1123.27-18.79,55.74-18.9,83.3-271.28,83.3-271.28,0,0-54.12,208-110.2,240.38-56.11,32.39-1096.37,49.69-1096.37,49.69Z"/><polygon class="cls-11" points="27.22 228.2 200.46 275.49 718.24 228.2 200.46 247.05 27.22 228.2"/></g><rect class="cls-17" x="-29.2" y="-19.1" width="1544.24" height="24.78"/></g></g></g></svg>