<svg width="74" height="82" viewBox="0 0 74 82" fill="none" xmlns="http://www.w3.org/2000/svg">
<path d="M8.12278 80.6544C5.92314 80.6145 4.05432 79.7971 2.51632 78.2023C0.978318 76.6075 0.229263 74.7103 0.269155 72.5106L1.28458 16.5198C1.32448 14.3202 2.14183 12.4514 3.73665 10.9134C5.33146 9.37537 7.22869 8.62631 9.42833 8.66621L13.4277 8.73874L13.5727 0.740053L21.5714 0.885114L21.4264 8.8838L53.4211 9.46404L53.5662 1.46536L61.5648 1.61042L61.4198 9.60911L65.4191 9.68164C67.6188 9.72153 69.4876 10.5389 71.0256 12.1337C72.5636 13.7285 73.3126 15.6257 73.2727 17.8254L72.2573 73.8162C72.2174 76.0158 71.4001 77.8846 69.8053 79.4226C68.2104 80.9606 66.3132 81.7097 64.1136 81.6698L8.12278 80.6544ZM8.26784 72.6557L64.2586 73.6711L64.9839 33.6777L8.99315 32.6623L8.26784 72.6557ZM9.13821 24.6636L65.129 25.679L65.2741 17.6803L9.28327 16.6649L9.13821 24.6636ZM36.6984 49.1673C35.5653 49.1468 34.6224 48.7463 33.8697 47.9659C33.1171 47.1854 32.7511 46.2286 32.7716 45.0955C32.7922 43.9623 33.1927 43.0194 33.9731 42.2668C34.7535 41.5142 35.7103 41.1481 36.8435 41.1687C37.9766 41.1892 38.9195 41.5897 39.6722 42.3701C40.4248 43.1506 40.7908 44.1074 40.7703 45.2405C40.7497 46.3737 40.3492 47.3166 39.5688 48.0692C38.7884 48.8219 37.8316 49.1879 36.6984 49.1673ZM20.701 48.8772C19.5679 48.8567 18.625 48.4562 17.8724 47.6757C17.1197 46.8953 16.7537 45.9385 16.7742 44.8053C16.7948 43.6722 17.1953 42.7293 17.9757 41.9767C18.7562 41.224 19.713 40.858 20.8461 40.8785C21.9793 40.8991 22.9222 41.2996 23.6748 42.08C24.4274 42.8605 24.7935 43.8173 24.7729 44.9504C24.7524 46.0836 24.3519 47.0265 23.5714 47.7791C22.791 48.5317 21.8342 48.8978 20.701 48.8772ZM52.6958 49.4575C51.5626 49.4369 50.6197 49.0364 49.8671 48.256C49.1145 47.4755 48.7484 46.5187 48.769 45.3856C48.7895 44.2524 49.19 43.3096 49.9705 42.5569C50.7509 41.8043 51.7077 41.4382 52.8408 41.4588C53.974 41.4793 54.9169 41.8798 55.6695 42.6603C56.4222 43.4407 56.7882 44.3975 56.7677 45.5307C56.7471 46.6638 56.3466 47.6067 55.5662 48.3593C54.7857 49.112 53.8289 49.478 52.6958 49.4575ZM36.4083 65.1647C35.2752 65.1442 34.3323 64.7437 33.5796 63.9632C32.827 63.1828 32.4609 62.226 32.4815 61.0928C32.502 59.9597 32.9025 59.0168 33.683 58.2642C34.4634 57.5115 35.4202 57.1455 36.5534 57.166C37.6865 57.1866 38.6294 57.5871 39.382 58.3675C40.1347 59.148 40.5007 60.1048 40.4802 61.2379C40.4596 62.371 40.0591 63.3139 39.2787 64.0666C38.4982 64.8192 37.5414 65.1853 36.4083 65.1647ZM20.4109 64.8746C19.2778 64.854 18.3349 64.4535 17.5822 63.6731C16.8296 62.8927 16.4636 61.9359 16.4841 60.8027C16.5047 59.6696 16.9052 58.7267 17.6856 57.974C18.466 57.2214 19.4228 56.8554 20.556 56.8759C21.6891 56.8965 22.632 57.297 23.3847 58.0774C24.1373 58.8578 24.5034 59.8146 24.4828 60.9478C24.4622 62.0809 24.0618 63.0238 23.2813 63.7765C22.5009 64.5291 21.5441 64.8951 20.4109 64.8746ZM52.4057 65.4548C51.2725 65.4343 50.3296 65.0338 49.577 64.2533C48.8243 63.4729 48.4583 62.5161 48.4789 61.383C48.4994 60.2498 48.8999 59.3069 49.6803 58.5543C50.4608 57.8016 51.4176 57.4356 52.5507 57.4562C53.6839 57.4767 54.6268 57.8772 55.3794 58.6576C56.132 59.4381 56.4981 60.3949 56.4775 61.528C56.457 62.6612 56.0565 63.6041 55.2761 64.3567C54.4956 65.1093 53.5388 65.4754 52.4057 65.4548Z" fill="#935B1F"/>
</svg>
