<svg width="98" height="99" viewBox="0 0 98 99" fill="none" xmlns="http://www.w3.org/2000/svg">
<path d="M28.0883 93.4294L41.5141 31.4627C41.9491 29.5369 42.8752 28.1035 44.2925 27.1624C45.7098 26.2212 47.185 25.7646 48.7181 25.7924C50.2512 25.8202 51.6616 26.1792 52.9493 26.8693C54.237 27.5594 55.2687 28.5783 56.0444 29.9259L59.9276 36.3974C61.0924 38.3522 62.6104 40.13 64.4817 41.7308C66.353 43.3317 68.5151 44.5211 70.968 45.299L71.0968 38.2002L77.0958 38.309L76.0804 94.2998L70.0814 94.191L70.8175 53.5977C67.6314 52.8064 64.6863 51.5862 61.9825 49.9369C59.2786 48.2876 56.948 46.2783 54.9906 43.9091L52.3734 55.8636L60.627 64.0146L60.083 94.0097L52.0843 93.8646L52.5195 69.8686L44.2659 61.7176L36.4869 93.5817L28.0883 93.4294ZM30.5042 53.9667L22.0346 52.2129C20.9718 51.9936 20.1485 51.4286 19.565 50.5178C18.9814 49.6071 18.7999 48.587 19.0204 47.4574L22.3046 31.8144C22.7432 29.6887 23.9068 28.0262 25.7956 26.8269C27.6843 25.6276 29.6915 25.2473 31.8173 25.6859L36.4002 26.6692L30.5042 53.9667ZM55.3533 23.9124C53.1536 23.8725 51.2848 23.0551 49.7468 21.4603C48.2088 19.8655 47.4598 17.9683 47.4997 15.7686C47.5395 13.569 48.3569 11.7002 49.9517 10.1622C51.5465 8.62418 53.4438 7.87513 55.6434 7.91502C57.843 7.95491 59.7119 8.77226 61.2499 10.3671C62.7879 11.9619 63.5369 13.8591 63.497 16.0588C63.4571 18.2584 62.6398 20.1272 61.045 21.6652C59.4501 23.2032 57.5529 23.9523 55.3533 23.9124Z" fill="#935B1F"/>
</svg>
