<svg width="82" height="85" viewBox="0 0 82 85" fill="none" xmlns="http://www.w3.org/2000/svg">
<path d="M8.14009 83.7641L8.93793 39.7713L0.939244 39.6262L1.37443 15.6302L22.171 16.0073C21.8486 15.4014 21.6435 14.7642 21.5556 14.0959C21.4677 13.4275 21.4304 12.7267 21.4437 11.9935C21.5041 8.66071 22.722 5.84899 25.0972 3.55835C27.4725 1.26771 30.3265 0.152616 33.6593 0.213058C35.1924 0.240861 36.6203 0.550138 37.9432 1.14089C39.266 1.73164 40.4849 2.53721 41.5999 3.55759C42.7524 2.51165 44.0001 1.73415 45.3429 1.22508C46.6856 0.71601 48.1236 0.475377 49.6567 0.503181C52.9894 0.563623 55.8012 1.78147 58.0918 4.15673C60.3824 6.53199 61.4975 9.38601 61.4371 12.7188C61.4238 13.452 61.3447 14.134 61.2 14.7648C61.0552 15.3956 60.8434 16.0419 60.5647 16.7036L81.3613 17.0808L80.9261 41.0768L72.9274 40.9318L72.1296 84.9246L8.14009 83.7641ZM49.5116 8.50187C48.3785 8.48131 47.4217 8.84736 46.6412 9.6C45.8608 10.3526 45.4603 11.2955 45.4397 12.4287C45.4192 13.5618 45.7852 14.5186 46.5379 15.2991C47.2905 16.0795 48.2334 16.48 49.3665 16.5005C50.4997 16.5211 51.4565 16.1551 52.2369 15.4024C53.0174 14.6498 53.4179 13.7069 53.4384 12.5737C53.459 11.4406 53.0929 10.4838 52.3403 9.70335C51.5876 8.92291 50.6447 8.52242 49.5116 8.50187ZM29.4424 12.1386C29.4218 13.2717 29.7878 14.2285 30.5405 15.0089C31.2931 15.7894 32.236 16.1899 33.3692 16.2104C34.5023 16.231 35.4591 15.8649 36.2396 15.1123C37.02 14.3597 37.4205 13.4168 37.441 12.2836C37.4616 11.1505 37.0955 10.1937 36.3429 9.41323C35.5903 8.63279 34.6474 8.23229 33.5142 8.21174C32.3811 8.19119 31.4243 8.55724 30.6438 9.30988C29.8634 10.0625 29.4629 11.0054 29.4424 12.1386ZM9.22805 23.7739L9.08299 31.7726L37.0784 32.2803L37.2234 24.2816L9.22805 23.7739ZM36.2805 76.2731L36.9333 40.279L16.9366 39.9164L16.2838 75.9104L36.2805 76.2731ZM44.2792 76.4182L64.2759 76.7808L64.9287 40.7867L44.932 40.4241L44.2792 76.4182ZM73.0725 32.9331L73.2175 24.9344L45.2221 24.4267L45.0771 32.4254L73.0725 32.9331Z" fill="#935B1F"/>
</svg>
