<svg width="98" height="98" viewBox="0 0 98 98" fill="none" xmlns="http://www.w3.org/2000/svg">
<g clip-path="url(#clip0_6007_51)">
<path d="M28.2035 88.7524L28.4936 72.755L0.498201 72.2473L16.3309 48.5305L8.93207 48.3963L37.6528 8.91059L49.3389 26.3254L61.6488 9.34577L88.9189 49.8469L81.5201 49.7127L96.4824 73.988L68.487 73.4803L68.1969 89.4777L52.1995 89.1876L52.4896 73.1902L44.491 73.0451L44.2008 89.0425L28.2035 88.7524ZM67.5323 65.4617L82.0299 65.7246L66.9676 41.4475L73.6665 41.569L61.395 23.3435L54.113 33.3131L64.9229 49.4117L57.5241 49.2775L67.5323 65.4617ZM15.2409 64.5133L58.0338 65.2894L42.9716 41.0123L49.6705 41.1338L37.3989 22.9083L24.4746 40.6769L31.1735 40.7983L15.2409 64.5133ZM15.2409 64.5133L30.7383 64.7944L24.0394 64.6729L49.2353 65.1299L42.5364 65.0084L58.0338 65.2894L15.2409 64.5133ZM67.5323 65.4617L57.234 65.2749L64.6327 65.4091L53.5346 65.2078L73.2313 65.565L66.5324 65.4435L82.0299 65.7246L67.5323 65.4617Z" fill="#935B1F"/>
</g>
<defs>
<clipPath id="clip0_6007_51">
<rect width="96" height="96" fill="white" transform="translate(1.80371 0.258789) rotate(1.03898)"/>
</clipPath>
</defs>
</svg>
